<svg width="778" height="365" viewBox="0 0 778 365" fill="none" xmlns="http://www.w3.org/2000/svg">
<path opacity="0.3" d="M747.464 39.1705L745.018 48.4742L742.733 46.1893L745.179 36.8857L740.28 31.9875L730.977 34.4327L728.692 32.1479L737.996 29.7027L731.834 23.5412C731.572 23.2787 731.423 22.9237 731.421 22.5545C731.419 22.1852 731.564 21.8319 731.823 21.5722L748.468 4.92799L746.488 2.94809C746.225 2.68554 746.076 2.33059 746.074 1.96133C746.072 1.59206 746.217 1.23874 746.477 0.979071C746.736 0.719405 747.09 0.574673 747.459 0.576713C747.828 0.578753 748.183 0.727399 748.446 0.989949L776.164 28.7085C776.427 28.9711 776.576 29.326 776.578 29.6953C776.58 30.0646 776.435 30.4179 776.175 30.6776C775.916 30.9372 775.562 31.082 775.193 31.0799C774.824 31.0779 774.469 30.9292 774.206 30.6667L772.226 28.6868L755.582 45.331C755.322 45.5906 754.969 45.7354 754.6 45.7333C754.231 45.7313 753.876 45.5827 753.613 45.3201L747.464 39.1705ZM770.246 26.7069L750.447 6.90789L734.782 22.573L754.581 42.372L770.246 26.7069ZM747.565 19.6902C747.827 19.9528 747.976 20.3077 747.978 20.677C747.98 21.0462 747.835 21.3996 747.575 21.6592L745.617 23.6174C745.358 23.877 745.004 24.0218 744.635 24.0197C744.266 24.0177 743.911 23.869 743.648 23.6065C743.386 23.3439 743.237 22.989 743.235 22.6197C743.233 22.2505 743.378 21.8971 743.637 21.6375L745.596 19.6793C745.855 19.4197 746.209 19.2749 746.578 19.277C746.947 19.279 747.302 19.4277 747.565 19.6902V19.6902ZM754.472 22.6818C754.735 22.9444 754.884 23.2993 754.886 23.6686C754.888 24.0378 754.743 24.3912 754.483 24.6508L750.567 28.5671C750.307 28.8268 749.954 28.9715 749.585 28.9695C749.216 28.9674 748.861 28.8188 748.598 28.5562C748.336 28.2937 748.187 27.9387 748.185 27.5695C748.183 27.2002 748.328 26.8469 748.587 26.5872L752.503 22.6709C752.763 22.4113 753.116 22.2665 753.486 22.2686C753.855 22.2706 754.21 22.4193 754.472 22.6818V22.6818ZM761.38 25.6734C761.643 25.936 761.792 26.2909 761.794 26.6602C761.796 27.0294 761.651 27.3828 761.391 27.6424L755.517 33.5169C755.257 33.7765 754.904 33.9213 754.535 33.9192C754.165 33.9172 753.81 33.7685 753.548 33.506C753.285 33.2434 753.137 32.8885 753.135 32.5192C753.133 32.15 753.277 31.7966 753.537 31.537L759.411 25.6625C759.671 25.4029 760.024 25.2581 760.394 25.2602C760.763 25.2622 761.118 25.4109 761.38 25.6734Z" fill="white"/>
<g opacity="0.6">
<path d="M75.3409 84.2958V82.9392L77.0433 81.4496C77.3571 81.1731 77.563 80.7944 77.6247 80.3807C77.6863 79.967 77.5998 79.5447 77.3802 79.1887L75.2877 75.642C75.1322 75.3727 74.9087 75.149 74.6394 74.9934C74.3702 74.8378 74.0648 74.7557 73.7538 74.7554C73.5611 74.7539 73.3694 74.7839 73.1863 74.8441L71.0318 75.5711C70.6598 75.3239 70.2717 75.1018 69.8702 74.9061L69.418 72.6717C69.337 72.2635 69.1149 71.8968 68.7907 71.6359C68.4665 71.3749 68.0608 71.2362 67.6447 71.2442H63.4952C63.0791 71.2362 62.6734 71.3749 62.3492 71.6359C62.025 71.8968 61.8029 72.2635 61.7219 72.6717L61.2697 74.9061C60.8653 75.1017 60.4743 75.3239 60.0993 75.5711L57.989 74.8086C57.804 74.7604 57.6124 74.7424 57.4216 74.7554C57.1106 74.7557 56.8052 74.8378 56.5359 74.9934C56.2667 75.149 56.0431 75.3727 55.8877 75.642L53.7951 79.1887C53.5882 79.5442 53.5113 79.9606 53.5776 80.3667C53.6439 80.7727 53.8493 81.143 54.1587 81.4142L55.8345 82.9481V84.3047L54.1587 85.7943C53.8406 86.0674 53.6296 86.4443 53.563 86.8582C53.4965 87.2721 53.5787 87.6962 53.7951 88.0552L55.8877 91.6019C56.0431 91.8712 56.2667 92.0949 56.5359 92.2505C56.8052 92.4061 57.1106 92.4882 57.4216 92.4885C57.6143 92.49 57.806 92.4601 57.989 92.3999L60.1436 91.6728C60.5156 91.92 60.9036 92.1422 61.3051 92.3378L61.7573 94.5722C61.8384 94.9804 62.0605 95.3471 62.3847 95.6081C62.7089 95.869 63.1145 96.0077 63.5306 95.9997H67.7157C68.1318 96.0077 68.5374 95.869 68.8616 95.6081C69.1858 95.3471 69.4079 94.9804 69.489 94.5722L69.9412 92.3378C70.3455 92.1422 70.7365 91.92 71.1116 91.6728L73.2573 92.3999C73.4403 92.4601 73.632 92.49 73.8247 92.4885C74.1357 92.4882 74.4411 92.4061 74.7104 92.2505C74.9796 92.0949 75.2032 91.8712 75.3586 91.6019L77.3802 88.0552C77.5872 87.6997 77.6641 87.2833 77.5978 86.8773C77.5314 86.4713 77.326 86.1009 77.0167 85.8297L75.3409 84.2958ZM73.7538 90.7152L70.7126 89.6867C70.0006 90.2897 69.187 90.7611 68.3097 91.0787L67.6802 94.2618H63.4952L62.8656 91.1142C61.9953 90.7875 61.1861 90.317 60.4717 89.7222L57.4216 90.7152L55.3291 87.1686L57.7408 85.0406C57.5768 84.1228 57.5768 83.1832 57.7408 82.2654L55.3291 80.0753L57.4216 76.5287L60.4628 77.5572C61.1747 76.9542 61.9884 76.4828 62.8656 76.1652L63.4952 72.9821H67.6802L68.3097 76.1297C69.18 76.4564 69.9893 76.9269 70.7037 77.5218L73.7538 76.5287L75.8463 80.0753L73.4346 82.2033C73.5985 83.1211 73.5985 84.0607 73.4346 84.9785L75.8463 87.1686L73.7538 90.7152Z" fill="white"/>
<path d="M65.5877 88.9419C64.5355 88.9419 63.507 88.6299 62.6321 88.0453C61.7572 87.4608 61.0754 86.6299 60.6727 85.6578C60.2701 84.6857 60.1647 83.6161 60.37 82.5841C60.5753 81.5521 61.0819 80.6042 61.8259 79.8602C62.5699 79.1162 63.5179 78.6095 64.5498 78.4042C65.5818 78.199 66.6515 78.3043 67.6236 78.707C68.5957 79.1096 69.4265 79.7915 70.0111 80.6664C70.5956 81.5412 70.9076 82.5698 70.9076 83.622C70.9148 84.3226 70.782 85.0175 70.5172 85.6662C70.2523 86.3149 69.8608 86.9042 69.3653 87.3996C68.8699 87.895 68.2806 88.2866 67.6319 88.5514C66.9833 88.8163 66.2883 88.949 65.5877 88.9419V88.9419ZM65.5877 80.0753C65.119 80.0644 64.6529 80.1487 64.2177 80.3231C63.7824 80.4974 63.3871 80.7583 63.0555 81.0898C62.724 81.4213 62.4632 81.8167 62.2888 82.2519C62.1144 82.6871 62.0302 83.1532 62.0411 83.622C62.0302 84.0907 62.1144 84.5568 62.2888 84.992C62.4632 85.4272 62.724 85.8226 63.0555 86.1541C63.3871 86.4857 63.7824 86.7465 64.2177 86.9209C64.6529 87.0952 65.119 87.1795 65.5877 87.1686C66.0564 87.1795 66.5225 87.0952 66.9578 86.9209C67.393 86.7465 67.7883 86.4857 68.1199 86.1541C68.4514 85.8226 68.7122 85.4272 68.8866 84.992C69.061 84.5568 69.1453 84.0907 69.1343 83.622C69.1453 83.1532 69.061 82.6871 68.8866 82.2519C68.7122 81.8167 68.4514 81.4213 68.1199 81.0898C67.7883 80.7583 67.393 80.4974 66.9578 80.3231C66.5225 80.1487 66.0564 80.0644 65.5877 80.0753Z" fill="white"/>
<path opacity="0.66" d="M126.889 297.14C126.656 296.892 126.337 296.75 126 296.75C125.663 296.75 125.344 296.892 125.111 297.14C124.878 297.387 124.75 297.719 124.75 298.063V304.188H119C118.663 304.188 118.344 304.33 118.111 304.577C117.878 304.825 117.75 305.157 117.75 305.5C117.75 305.843 117.878 306.176 118.111 306.423C118.344 306.67 118.663 306.813 119 306.813H124.75V312.938C124.75 313.281 124.878 313.613 125.111 313.86C125.344 314.108 125.663 314.25 126 314.25C126.337 314.25 126.656 314.108 126.889 313.86C127.122 313.613 127.25 313.281 127.25 312.938V306.813H133C133.337 306.813 133.656 306.67 133.889 306.423C134.122 306.176 134.25 305.843 134.25 305.5C134.25 305.157 134.122 304.825 133.889 304.577C133.656 304.33 133.337 304.188 133 304.188H127.25V298.063C127.25 297.719 127.122 297.387 126.889 297.14Z" fill="white" stroke="white" stroke-width="0.5"/>
</g>
<g opacity="0.3">
<line x1="91.5" y1="285.5" x2="91.5" y2="361.5" stroke="white" stroke-width="7" stroke-linecap="round"/>
<line x1="91.5" y1="256.5" x2="91.5" y2="271.5" stroke="white" stroke-width="7" stroke-linecap="round"/>
<line x1="3.5" y1="329.5" x2="3.5" y2="314.5" stroke="white" stroke-width="7" stroke-linecap="round"/>
<line x1="91.5" y1="240.5" x2="91.5" y2="242.5" stroke="white" stroke-width="7" stroke-linecap="round"/>
<line x1="3.5" y1="345.5" x2="3.5" y2="343.5" stroke="white" stroke-width="7" stroke-linecap="round"/>
</g>
</svg>
