<svg width="1920" height="903" viewBox="0 0 1920 903" fill="none" xmlns="http://www.w3.org/2000/svg">
<path opacity="0.3" d="M895.464 39.1705L893.018 48.4742L890.733 46.1893L893.179 36.8857L888.28 31.9875L878.977 34.4327L876.692 32.1479L885.996 29.7027L879.834 23.5412C879.572 23.2787 879.423 22.9237 879.421 22.5545C879.419 22.1852 879.564 21.8319 879.823 21.5722L896.468 4.92799L894.488 2.94809C894.225 2.68554 894.076 2.33059 894.074 1.96133C894.072 1.59206 894.217 1.23874 894.477 0.979071C894.736 0.719405 895.09 0.574673 895.459 0.576713C895.828 0.578753 896.183 0.727399 896.446 0.989949L924.164 28.7085C924.427 28.9711 924.576 29.326 924.578 29.6953C924.58 30.0646 924.435 30.4179 924.175 30.6776C923.916 30.9372 923.562 31.082 923.193 31.0799C922.824 31.0779 922.469 30.9292 922.206 30.6667L920.226 28.6868L903.582 45.331C903.322 45.5906 902.969 45.7354 902.6 45.7333C902.231 45.7313 901.876 45.5827 901.613 45.3201L895.464 39.1705ZM918.246 26.7069L898.447 6.90789L882.782 22.573L902.581 42.372L918.246 26.7069ZM895.565 19.6902C895.827 19.9528 895.976 20.3077 895.978 20.677C895.98 21.0462 895.835 21.3996 895.575 21.6592L893.617 23.6174C893.358 23.877 893.004 24.0218 892.635 24.0197C892.266 24.0177 891.911 23.869 891.648 23.6065C891.386 23.3439 891.237 22.989 891.235 22.6197C891.233 22.2505 891.378 21.8971 891.637 21.6375L893.596 19.6793C893.855 19.4197 894.209 19.2749 894.578 19.277C894.947 19.279 895.302 19.4277 895.565 19.6902V19.6902ZM902.472 22.6818C902.735 22.9444 902.884 23.2993 902.886 23.6686C902.888 24.0378 902.743 24.3912 902.483 24.6508L898.567 28.5671C898.307 28.8268 897.954 28.9715 897.585 28.9695C897.216 28.9674 896.861 28.8188 896.598 28.5562C896.336 28.2937 896.187 27.9387 896.185 27.5695C896.183 27.2002 896.328 26.8469 896.587 26.5872L900.503 22.6709C900.763 22.4113 901.116 22.2665 901.486 22.2686C901.855 22.2706 902.21 22.4193 902.472 22.6818V22.6818ZM909.38 25.6734C909.643 25.936 909.792 26.2909 909.794 26.6602C909.796 27.0294 909.651 27.3828 909.391 27.6424L903.517 33.5169C903.257 33.7765 902.904 33.9213 902.535 33.9192C902.165 33.9172 901.81 33.7685 901.548 33.506C901.285 33.2434 901.137 32.8885 901.135 32.5192C901.133 32.15 901.277 31.7966 901.537 31.537L907.411 25.6625C907.671 25.4029 908.024 25.2581 908.394 25.2602C908.763 25.2622 909.118 25.4109 909.38 25.6734Z" fill="white"/>
<g opacity="0.6">
<path d="M223.341 84.2958V82.9392L225.043 81.4496C225.357 81.1731 225.563 80.7944 225.625 80.3807C225.686 79.967 225.6 79.5447 225.38 79.1887L223.288 75.642C223.132 75.3727 222.909 75.149 222.639 74.9934C222.37 74.8378 222.065 74.7557 221.754 74.7554C221.561 74.7539 221.369 74.7839 221.186 74.8441L219.032 75.5711C218.66 75.3239 218.272 75.1018 217.87 74.9061L217.418 72.6717C217.337 72.2635 217.115 71.8968 216.791 71.6359C216.466 71.3749 216.061 71.2362 215.645 71.2442H211.495C211.079 71.2362 210.673 71.3749 210.349 71.6359C210.025 71.8968 209.803 72.2635 209.722 72.6717L209.27 74.9061C208.865 75.1017 208.474 75.3239 208.099 75.5711L205.989 74.8086C205.804 74.7604 205.612 74.7424 205.422 74.7554C205.111 74.7557 204.805 74.8378 204.536 74.9934C204.267 75.149 204.043 75.3727 203.888 75.642L201.795 79.1887C201.588 79.5442 201.511 79.9606 201.578 80.3667C201.644 80.7727 201.849 81.143 202.159 81.4142L203.834 82.9481V84.3047L202.159 85.7943C201.841 86.0674 201.63 86.4443 201.563 86.8582C201.496 87.2721 201.579 87.6962 201.795 88.0552L203.888 91.6019C204.043 91.8712 204.267 92.0949 204.536 92.2505C204.805 92.4061 205.111 92.4882 205.422 92.4885C205.614 92.49 205.806 92.4601 205.989 92.3999L208.144 91.6728C208.516 91.92 208.904 92.1422 209.305 92.3378L209.757 94.5722C209.838 94.9804 210.06 95.3471 210.385 95.6081C210.709 95.869 211.115 96.0077 211.531 95.9997H215.716C216.132 96.0077 216.537 95.869 216.862 95.6081C217.186 95.3471 217.408 94.9804 217.489 94.5722L217.941 92.3378C218.346 92.1422 218.737 91.92 219.112 91.6728L221.257 92.3999C221.44 92.4601 221.632 92.49 221.825 92.4885C222.136 92.4882 222.441 92.4061 222.71 92.2505C222.98 92.0949 223.203 91.8712 223.359 91.6019L225.38 88.0552C225.587 87.6997 225.664 87.2833 225.598 86.8773C225.531 86.4713 225.326 86.1009 225.017 85.8297L223.341 84.2958ZM221.754 90.7152L218.713 89.6867C218.001 90.2897 217.187 90.7611 216.31 91.0787L215.68 94.2618H211.495L210.866 91.1142C209.995 90.7875 209.186 90.317 208.472 89.7222L205.422 90.7152L203.329 87.1686L205.741 85.0406C205.577 84.1228 205.577 83.1832 205.741 82.2654L203.329 80.0753L205.422 76.5287L208.463 77.5572C209.175 76.9542 209.988 76.4828 210.866 76.1652L211.495 72.9821H215.68L216.31 76.1297C217.18 76.4564 217.989 76.9269 218.704 77.5218L221.754 76.5287L223.846 80.0753L221.435 82.2033C221.599 83.1211 221.599 84.0607 221.435 84.9785L223.846 87.1686L221.754 90.7152Z" fill="white"/>
<path d="M213.588 88.9419C212.536 88.9419 211.507 88.6299 210.632 88.0453C209.757 87.4608 209.075 86.6299 208.673 85.6578C208.27 84.6857 208.165 83.6161 208.37 82.5841C208.575 81.5521 209.082 80.6042 209.826 79.8602C210.57 79.1162 211.518 78.6095 212.55 78.4042C213.582 78.199 214.651 78.3043 215.624 78.707C216.596 79.1096 217.427 79.7915 218.011 80.6664C218.596 81.5412 218.908 82.5698 218.908 83.622C218.915 84.3226 218.782 85.0175 218.517 85.6662C218.252 86.3149 217.861 86.9042 217.365 87.3996C216.87 87.895 216.281 88.2866 215.632 88.5514C214.983 88.8163 214.288 88.949 213.588 88.9419V88.9419ZM213.588 80.0753C213.119 80.0644 212.653 80.1487 212.218 80.3231C211.782 80.4974 211.387 80.7583 211.056 81.0898C210.724 81.4213 210.463 81.8167 210.289 82.2519C210.114 82.6871 210.03 83.1532 210.041 83.622C210.03 84.0907 210.114 84.5568 210.289 84.992C210.463 85.4272 210.724 85.8226 211.056 86.1541C211.387 86.4857 211.782 86.7465 212.218 86.9209C212.653 87.0952 213.119 87.1795 213.588 87.1686C214.056 87.1795 214.523 87.0952 214.958 86.9209C215.393 86.7465 215.788 86.4857 216.12 86.1541C216.451 85.8226 216.712 85.4272 216.887 84.992C217.061 84.5568 217.145 84.0907 217.134 83.622C217.145 83.1532 217.061 82.6871 216.887 82.2519C216.712 81.8167 216.451 81.4213 216.12 81.0898C215.788 80.7583 215.393 80.4974 214.958 80.3231C214.523 80.1487 214.056 80.0644 213.588 80.0753Z" fill="white"/>
<path opacity="0.66" d="M274.889 297.14C274.656 296.892 274.337 296.75 274 296.75C273.663 296.75 273.344 296.892 273.111 297.14C272.878 297.387 272.75 297.719 272.75 298.063V304.188H267C266.663 304.188 266.344 304.33 266.111 304.577C265.878 304.825 265.75 305.157 265.75 305.5C265.75 305.843 265.878 306.176 266.111 306.423C266.344 306.67 266.663 306.813 267 306.813H272.75V312.938C272.75 313.281 272.878 313.613 273.111 313.86C273.344 314.108 273.663 314.25 274 314.25C274.337 314.25 274.656 314.108 274.889 313.86C275.122 313.613 275.25 313.281 275.25 312.938V306.813H281C281.337 306.813 281.656 306.67 281.889 306.423C282.122 306.176 282.25 305.843 282.25 305.5C282.25 305.157 282.122 304.825 281.889 304.577C281.656 304.33 281.337 304.188 281 304.188H275.25V298.063C275.25 297.719 275.122 297.387 274.889 297.14Z" fill="white" stroke="white" stroke-width="0.5"/>
</g>
<g opacity="0.3">
<line x1="239.5" y1="285.5" x2="239.5" y2="361.5" stroke="white" stroke-width="7" stroke-linecap="round"/>
<line x1="239.5" y1="256.5" x2="239.5" y2="271.5" stroke="white" stroke-width="7" stroke-linecap="round"/>
<line x1="151.5" y1="329.5" x2="151.5" y2="314.5" stroke="white" stroke-width="7" stroke-linecap="round"/>
<line x1="239.5" y1="240.5" x2="239.5" y2="242.5" stroke="white" stroke-width="7" stroke-linecap="round"/>
<line x1="151.5" y1="345.5" x2="151.5" y2="343.5" stroke="white" stroke-width="7" stroke-linecap="round"/>
</g>
</svg>
