<svg width="37" height="35" viewBox="0 0 37 35" fill="none" xmlns="http://www.w3.org/2000/svg">
<path fill-rule="evenodd" clip-rule="evenodd" d="M20.3822 0.949162C19.1125 -0.316752 17.0544 -0.316337 15.7853 0.950104L5.19312 11.5195L5.1841 11.5169L5.15062 11.5204C5.16441 11.527 5.17794 11.5336 5.1912 11.5402C3.33312 11.7343 2.54476 12.2913 2.53584 13.0065C2.53898 13.2725 2.64842 13.5599 2.84944 13.8581L2.83977 13.8678C4.52896 16.409 12.8971 19.7612 18.8174 17.49C14.3804 19.7028 3.93104 20.1414 0.861907 15.8449C0.195388 16.5641 -0.0834803 17.5093 0.0215372 18.4176C0.832318 22.8749 9.89689 24.091 18.9615 17.6328L20.9231 19.5893C18.4822 22.0906 14.8768 36.6194 20.2341 34.4011C20.3612 34.3151 20.469 34.2381 20.6157 34.1274L20.8545 33.9025C20.8407 33.9059 20.827 33.9091 20.8134 33.9124L35.1614 20.4017C36.4936 19.1471 36.5238 17.0429 35.228 15.7509L20.3822 0.949162ZM18.8198 5.35217L19.3101 3.39565L19.8005 5.35217L21.2717 5.84131L19.8005 6.33045L19.3101 8.28698L18.8198 6.33045L17.3486 5.84131L18.8198 5.35217ZM12.75 11.7392L13.0769 10.4348L13.4038 11.7392L14.3846 12.0652L13.4038 12.3913L13.0769 13.6957L12.75 12.3913L11.7693 12.0652L12.75 11.7392ZM24.1363 22.7413L23.8093 24.0456L22.8286 24.3718L23.8093 24.6978L24.1363 26.0021L24.4632 24.6978L25.444 24.3718L24.4632 24.0456L24.1363 22.7413Z" fill="#FBA709"/>
<path fill-rule="evenodd" clip-rule="evenodd" d="M36.4981 2.45218C33.4307 2.45218 30.5217 3.81117 28.5579 6.1616L21.5718 14.5236L25.6059 8.48787L18.9096 11.3504C18.0592 11.7139 17.8458 12.8191 18.5 13.4716L20.6549 15.621L19.5547 16.9379L21.9752 19.3522L23.2954 18.2547L25.4503 20.4041C26.1045 21.0566 27.2126 20.8438 27.577 19.9957L30.4468 13.3165L24.3957 17.3403L32.7791 10.3719C35.1356 8.41326 36.4981 5.51175 36.4981 2.45218ZM29.8418 9.09161C30.5101 9.75825 31.5938 9.75825 32.2622 9.09161C32.9306 8.42488 32.9306 7.34398 32.2622 6.67734C31.5938 6.01062 30.5101 6.01062 29.8418 6.67734C29.1733 7.34398 29.1733 8.42488 29.8418 9.09161Z" fill="#A3A2FF"/>
<path opacity="0.6" d="M1.01575 15.9408C2.61839 21.4176 12.3621 21.132 19.0472 17.6991C14.5708 19.9302 3.98141 20.3563 1.01575 15.9408Z" fill="#424242"/>
<path opacity="0.6" d="M20.4657 34.6094C15.9516 36.4785 17.8012 26.4568 19.9554 21.7599C18.3851 25.9348 17.0447 35.138 21.0862 34.1108L20.8474 34.3356C20.7007 34.4463 20.5928 34.5233 20.4657 34.6094Z" fill="#424242"/>
</svg>
